<?xml version="1.0" standalone="no"?>
<!DOCTYPE svg PUBLIC "-//W3C//DTD SVG 20010904//EN"
 "http://www.w3.org/TR/2001/REC-SVG-20010904/DTD/svg10.dtd">
<svg version="1.0" xmlns="http://www.w3.org/2000/svg"
 width="700.000000pt" height="700.000000pt" viewBox="0 0 700.000000 700.000000"
 preserveAspectRatio="xMidYMid meet">
<metadata>
Created by potrace 1.11, written by Peter Selinger 2001-2013
</metadata>
<g transform="translate(0.000000,700.000000) scale(0.100000,-0.100000)"
fill="#000000" stroke="none">
<path d="M3679 5432 c-14 -2 -15 -236 -15 -2011 l0 -2009 305 2 305 1 0 248 1
248 76 -78 c165 -169 230 -218 381 -293 195 -96 287 -118 518 -125 239 -6 383
27 624 146 192 95 329 217 541 480 24 31 101 164 132 229 68 143 128 321 138
409 3 25 8 57 12 71 9 41 11 372 2 431 -5 29 -11 70 -14 89 -22 143 -144 418
-247 555 -84 113 -292 315 -390 379 -191 126 -409 220 -578 251 -75 14 -361
15 -425 1 -102 -22 -138 -32 -205 -58 -120 -47 -265 -126 -363 -196 -92 -66
-105 -76 -160 -124 -18 -15 -34 -28 -37 -28 -3 0 -5 306 -5 680 0 375 -2 686
-5 693 -4 9 -76 12 -291 12 -157 0 -292 -1 -300 -3z m1648 -1616 c199 -26 452
-184 557 -349 61 -96 109 -209 132 -312 12 -53 11 -337 -2 -415 -36 -222 -159
-416 -339 -535 -165 -109 -304 -152 -495 -153 -175 -1 -288 25 -430 101 -232
123 -362 271 -438 502 -51 152 -51 421 0 570 73 212 199 367 383 470 150 85
221 110 335 122 30 3 56 6 58 8 5 4 188 -3 239 -9z"/>
<path d="M1464 5419 c-178 -30 -433 -164 -545 -286 -153 -167 -273 -483 -268
-708 5 -228 98 -435 283 -629 31 -32 55 -60 54 -61 -2 -1 -59 -40 -127 -86
-135 -91 -294 -235 -366 -330 -40 -55 -111 -187 -142 -264 -44 -113 -58 -220
-58 -430 1 -253 24 -375 105 -540 74 -153 226 -343 345 -430 22 -17 42 -32 45
-36 10 -11 127 -77 174 -99 63 -28 158 -59 221 -71 28 -5 61 -11 75 -14 119
-23 386 -23 515 1 48 9 172 52 226 79 167 85 278 181 430 370 65 80 68 83 86
66 20 -19 340 -353 446 -465 l65 -69 34 28 c18 15 60 51 93 80 33 29 129 112
213 184 83 73 152 135 152 140 0 4 -15 23 -32 43 -18 19 -69 75 -113 123 -44
49 -84 93 -90 99 -14 16 -203 223 -246 271 -21 22 -50 54 -65 71 -58 63 -99
110 -111 125 -11 13 5 47 92 204 58 104 105 190 105 191 0 2 15 29 34 61 42
73 81 143 119 213 16 30 49 89 72 130 39 70 59 106 138 250 16 30 36 64 43 75
8 11 14 22 14 25 0 4 -165 6 -367 6 l-367 -1 -96 -165 c-52 -92 -128 -223
-168 -293 l-74 -128 -56 48 c-32 26 -70 60 -87 74 -16 15 -85 74 -153 132
l-122 106 62 42 c135 91 215 156 311 254 83 84 114 128 167 233 132 266 153
479 69 723 -87 255 -236 423 -474 535 -127 59 -229 95 -342 118 -72 16 -244
18 -319 5z m293 -677 c106 -41 168 -98 198 -181 43 -124 -10 -302 -125 -418
-49 -50 -228 -163 -258 -163 -14 0 -134 147 -185 225 -25 39 -50 90 -57 113
-27 104 5 267 67 342 35 41 120 88 175 97 18 3 34 6 36 8 9 8 107 -7 149 -23z
m-294 -1625 c33 -35 214 -229 263 -282 25 -28 209 -225 282 -302 17 -19 32
-38 32 -43 0 -11 -48 -94 -92 -160 -136 -203 -395 -318 -598 -266 -251 64
-399 254 -413 531 -5 92 8 157 49 243 44 92 135 186 219 227 46 22 203 81 223
85 2 0 18 -15 35 -33z"/>
</g>
</svg>
