<svg viewBox="0 0 48 48" fill="none" xmlns="http://www.w3.org/2000/svg">
<path fill-rule="evenodd" clip-rule="evenodd" d="M19.5341 30.2166L24.1889 35.3369L20.7753 38.2849L17.1291 34.4835C17.1291 34.4835 15.9021 36.221 14.8017 36.9661C13.2372 38.0253 12.1511 38.3068 10.2618 38.286C7.52381 38.2558 5.51421 37.4601 3.78523 35.3369C2.35745 33.5835 1.9791 32.0897 2.00088 29.8286C2.01398 28.468 2.11425 27.6437 2.6991 26.4151C3.22792 25.3043 3.74007 24.7729 4.63861 23.9325C5.4 23.2204 6.81086 22.3809 6.81086 22.3809C6.81086 22.3809 5.84528 21.4705 5.41442 20.7517C4.24348 18.7985 4.17363 17.0448 5.02651 14.9332C5.77272 13.0857 6.75664 12.0548 8.59522 11.2869C10.4124 10.528 11.79 10.6062 13.6379 11.2869C15.6306 12.021 16.8659 12.9686 17.6721 14.9332C18.5386 17.0445 18.2302 18.7528 17.1291 20.7517C16.2391 22.3672 13.6379 23.9325 13.6379 23.9325L16.5084 26.4151L18.8358 22.3809H23.8786L19.5341 30.2166ZM9.21583 18.657C9.49672 19.289 10.0295 19.9021 10.5904 20.5476C10.6492 20.6153 10.7083 20.6833 10.7674 20.7517C10.7674 20.7517 12.2415 20.0535 12.7845 19.3552C13.3276 18.657 13.7155 17.6485 13.4052 16.7175C13.0949 15.7865 12.0087 15.321 11.2329 15.321C10.6113 15.321 9.71398 15.6543 9.37099 16.3296C9.028 17.0049 8.90551 17.9588 9.21583 18.657ZM9.83644 26.4151C9.83644 26.4151 8.2169 26.7906 7.50902 27.5012C6.528 28.486 6.23195 29.5509 6.50048 30.9148C6.75919 32.2288 7.36986 33.0895 8.59515 33.6301C9.87773 34.196 10.9619 33.9638 12.1639 33.2422C13.1618 32.6431 14.0258 30.9148 14.0258 30.9148L11.9311 28.6649L9.83644 26.4151Z" fill="currentColor"/>
<path fill-rule="evenodd" clip-rule="evenodd" d="M25.1199 38.3173H29.3092V34.8713C29.3092 34.8713 30.7384 36.5456 31.947 37.1987C33.3694 37.9675 34.3647 38.2805 35.9811 38.3173C37.7751 38.3582 38.8879 38.0251 40.4808 37.1987C41.7411 36.5449 42.3427 35.9433 43.2737 34.8713C44.1224 33.8941 44.5341 33.2619 45.0581 32.0784C45.7126 30.6 45.9364 29.6602 45.989 28.0442C46.0503 26.1617 45.8714 25.0107 45.0581 23.3118C44.5318 22.2126 44.1041 21.6436 43.2737 20.7517C42.3321 19.7404 41.6984 19.2327 40.4808 18.5794C38.8745 17.7176 37.8039 17.3215 35.9811 17.3381C34.2167 17.3542 33.1894 17.7412 31.6366 18.5794C30.6448 19.1148 29.3092 20.2862 29.3092 20.2862V10.7466H25.1199V38.3173ZM29.3092 28.0442C29.2745 26.8385 29.3786 26.0914 29.9299 25.0186C30.5565 23.7991 31.2107 23.196 32.4124 22.536C33.4816 21.9488 34.2183 21.7602 35.4381 21.7602C36.6579 21.7602 37.4063 21.9279 38.4637 22.536C39.6158 23.1985 40.2127 23.8221 40.7911 25.0186C41.3137 26.0994 41.3647 26.8441 41.3342 28.0442C41.3074 29.0956 41.2441 29.7328 40.7911 30.6819C40.2188 31.8813 39.6158 32.5021 38.4637 33.1645C37.4063 33.7726 36.6579 33.9403 35.4381 33.9403C34.2183 33.9403 33.4816 33.7517 32.4124 33.1645C31.2107 32.5045 30.5528 31.9034 29.9299 30.6819C29.4491 29.7392 29.3397 29.102 29.3092 28.0442Z" fill="currentColor"/>
</svg>
