<svg viewBox="0 0 32 32" fill="none" xmlns="http://www.w3.org/2000/svg">
<path d="M28.28 21.1867C27.4318 23.1926 26.1051 24.9603 24.4158 26.3351C22.7266 27.7098 20.7264 28.6499 18.5899 29.073C16.4535 29.4962 14.2459 29.3895 12.1602 28.7624C10.0745 28.1353 8.17418 27.0068 6.62537 25.4755C5.07656 23.9443 3.92643 22.057 3.27552 19.9786C2.62462 17.9002 2.49276 15.694 2.89147 13.5528C3.29019 11.4117 4.20734 9.40084 5.56274 7.69604C6.91814 5.99124 8.67052 4.64442 10.6667 3.77333" stroke="currentColor" stroke-width="2" stroke-linecap="round" stroke-linejoin="round"/>
<path d="M29.3333 16C29.3333 14.249 28.9885 12.5152 28.3184 10.8976C27.6483 9.27988 26.6662 7.81002 25.4281 6.57191C24.19 5.3338 22.7201 4.35167 21.1024 3.68161C19.4848 3.01154 17.751 2.66667 16 2.66667V16H29.3333Z" stroke="currentColor" stroke-width="2" stroke-linecap="round" stroke-linejoin="round"/>
</svg>
